<?xml version="1.0" encoding="UTF-8" standalone="no"?>
<svg
   xmlns:dc="http://purl.org/dc/elements/1.1/"
   xmlns:cc="http://creativecommons.org/ns#"
   xmlns:rdf="http://www.w3.org/1999/02/22-rdf-syntax-ns#"
   xmlns:svg="http://www.w3.org/2000/svg"
   xmlns="http://www.w3.org/2000/svg"
   version="1.1"
   id="svg2"
   viewBox="0 0 103.72958 103.72958"
   height="29.274794mm"
   width="29.274794mm">
  <defs
     id="defs4" />
  <metadata
     id="metadata7">
    <rdf:RDF>
      <cc:Work
         rdf:about="">
        <dc:format>image/svg+xml</dc:format>
        <dc:type
           rdf:resource="http://purl.org/dc/dcmitype/StillImage" />
        <dc:title></dc:title>
      </cc:Work>
    </rdf:RDF>
  </metadata>
  <g
     transform="translate(-253.84952,-386.2117)"
     id="layer1">
    <rect
       y="388.7117"
       x="256.34952"
       height="98.729584"
       width="98.729584"
       id="rect3338"
       style="fill:none;fill-rule:evenodd;stroke:#000000;stroke-width:5;stroke-linecap:butt;stroke-linejoin:miter;stroke-miterlimit:4;stroke-dasharray:none;stroke-opacity:1" />
    <text
       transform="scale(0.97221289,1.0285813)"
       id="text4146"
       y="455.37668"
       x="289.74603"
       style="font-style:normal;font-weight:normal;font-size:49.69047546px;line-height:125%;font-family:sans-serif;letter-spacing:0px;word-spacing:0px;fill:#000000;fill-opacity:1;stroke:none;stroke-width:1px;stroke-linecap:butt;stroke-linejoin:miter;stroke-opacity:1"
       xml:space="preserve"><tspan
         style="font-style:normal;font-variant:normal;font-weight:bold;font-stretch:normal;font-size:60px;font-family:Overpass;-inkscape-font-specification:'Overpass Bold'"
         y="455.37668"
         x="289.74603"
         id="tspan4148" /></text>
    <text
       id="text4150"
       y="438.36221"
       x="277"
       style="font-style:normal;font-weight:normal;font-size:40px;line-height:125%;font-family:sans-serif;letter-spacing:0px;word-spacing:0px;fill:#000000;fill-opacity:1;stroke:none;stroke-width:1px;stroke-linecap:butt;stroke-linejoin:miter;stroke-opacity:1"
       xml:space="preserve"><tspan
         y="438.36221"
         x="277"
         id="tspan4152" /></text>
    <g
       id="text4154"
       style="font-style:normal;font-weight:normal;font-size:40px;line-height:125%;font-family:sans-serif;letter-spacing:0px;word-spacing:0px;fill:#000000;fill-opacity:1;stroke:none;stroke-width:1px;stroke-linecap:butt;stroke-linejoin:miter;stroke-opacity:1">
      <path
         id="path4149"
         style="font-style:normal;font-variant:normal;font-weight:bold;font-stretch:normal;font-size:60px;font-family:Overpass;-inkscape-font-specification:'Overpass Bold'"
         d="m 282.58594,479.09464 q -2.28516,0 -4.39453,-0.64454 -2.08008,-0.61523 -3.89649,-1.78711 -1.78711,-1.20117 -3.28125,-2.90039 -1.46484,-1.72851 -2.51953,-3.92578 l 7.08984,-3.28125 q 1.17188,2.25586 2.90039,3.48633 1.75782,1.23047 4.10157,1.23047 1.23047,0 2.37304,-0.32227 1.14258,-0.35156 2.02149,-1.25976 0.8789,-0.9082 1.40625,-2.49024 0.52734,-1.61132 0.52734,-4.13086 l 0,-26.71875 8.08594,0 0,27.42188 q 0,2.98828 -0.61523,5.30273 -0.61524,2.31446 -1.66993,4.01368 -1.05468,1.69921 -2.46093,2.87109 -1.40625,1.14258 -3.01758,1.8457 -1.61133,0.67383 -3.31055,0.9668 -1.69922,0.32227 -3.33984,0.32227 z" />
      <path
         id="path4151"
         style="font-style:normal;font-variant:normal;font-weight:bold;font-stretch:normal;font-size:60px;font-family:Overpass;-inkscape-font-specification:'Overpass Bold'"
         d="m 338.39648,478.36221 0,-21.59179 q 0,-0.35157 0,-0.82032 0.0293,-0.46875 0.0293,-0.9375 0.0293,-0.49804 0.0293,-0.9082 0.0293,-0.41016 0.0586,-0.64453 -0.32226,0.99609 -0.64453,1.78711 -0.29297,0.79101 -0.61523,1.52344 l -10.19532,22.32422 -10.2539,-22.32422 q -0.32227,-0.73243 -0.64453,-1.52344 -0.29297,-0.79102 -0.61524,-1.78711 0.0293,0.23437 0.0293,0.64453 0.0293,0.41016 0.0293,0.9082 0.0293,0.46875 0.0293,0.9375 0.0293,0.46875 0.0293,0.82032 l 0,21.59179 -8.11524,0 0,-42.01172 8.23243,0 10.3125,23.17383 q 0.32226,0.76172 0.58593,1.46485 0.26368,0.67382 0.49805,1.40625 0.23438,-0.73243 0.49805,-1.40625 0.26367,-0.70313 0.58594,-1.46485 l 10.48828,-23.17383 7.73437,0 0,42.01172 -8.08594,0 z" />
    </g>
  </g>
</svg>
